<?xml version="1.0" encoding="utf-8"?>
<!-- Svg Vector Icons : http://www.onlinewebfonts.com/icon -->
<!DOCTYPE svg PUBLIC "-//W3C//DTD SVG 1.1//EN" "http://www.w3.org/Graphics/SVG/1.1/DTD/svg11.dtd">
<svg version="1.1" xmlns="http://www.w3.org/2000/svg" xmlns:xlink="http://www.w3.org/1999/xlink" x="0px" y="0px" viewBox="0 0 1000 1000" enable-background="new 0 0 1000 1000" xml:space="preserve">
<metadata> Svg Vector Icons : http://www.onlinewebfonts.com/icon </metadata>
<g><path d="M10,132.5c0,245,0,490,0,735c326.6,0,653.4,0,980,0c0-245,0-490,0-735C663.4,132.5,336.6,132.5,10,132.5z M80,283.3c280,0,560,0,840,0c0,174.4,0,348.8,0,523.1c-280,0-560,0-840,0C80,632.1,80,457.7,80,283.3z M110.6,315.8c0,153.4,0,306.7,0,460.1c258.8,0,517.7,0,776.6,0c0-153.4,0-306.7,0-460.1C628.3,315.8,369.5,315.8,110.6,315.8z M220,422.7c49.6,43.2,99.2,86.5,148.8,129.8C319.2,595.7,269.6,639,220,682.3c-14.6-12.7-29.2-25.5-43.7-38.2c35.7-30.6,71.5-61.1,107.2-91.6c-35.8-30.6-71.5-61.1-107.2-91.6C190.8,448.1,205.4,435.4,220,422.7z M430,628.9c70,0,140,0,210,0c0,17.8,0,35.6,0,53.5c-70,0-140,0-210,0C430,664.5,430,646.7,430,628.9z"/></g>
</svg>